<svg xmlns="http://www.w3.org/2000/svg" version="1.0" width="80px" height="80px" viewBox="0 0 414.000000 459.000000" preserveAspectRatio="xMidYMid meet">
  <g transform="translate(0.000000,459.000000) scale(0.100000,-0.100000)" fill="#FFFFFF" stroke="none">
    <path d="M1988 4580 c-108 -14 -151 -34 -437 -198 -157 -90 -287 -165 -288 -166 -2 -1 86 -54 195 -116 108 -63 296 -172 417 -243 121 -71 468 -271 770 -444 356 -203 564 -328 591 -354 23 -22 52 -61 65 -87 l24 -47 5 -553 5 -552 390 224 390 224 6 113 c4 63 7 276 8 475 1 329 -1 368 -19 438 -34 134 -112 252 -218 329 -41 31 -713 421 -1357 789 -233 133 -306 163 -425 171 -36 3 -91 1 -122 -3z"/>
    <path d="M955 4032 c-167 -90 -670 -384 -723 -423 -67 -51 -126 -126 -169 -214 -65 -138 -64 -118 -61 -1134 l3 -916 27 -75 c39 -112 74 -167 152 -245 61 -61 107 -90 335 -220 145 -82 268 -151 272 -153 5 -2 10 506 11 1130 l3 1133 27 55 c30 62 48 84 98 122 19 14 231 139 470 277 239 138 435 256 435 262 0 13 -753 448 -775 449 -8 0 -55 -22 -105 -48z"/>
    <path d="M1950 3243 c-14 -2 -57 -11 -97 -20 l-71 -16 -46 -111 c-36 -87 -43 -113 -33 -122 6 -7 72 -53 146 -103 l133 -92 192 26 c105 15 194 29 198 33 4 4 30 72 57 151 39 111 48 147 39 153 -95 63 -130 78 -213 93 -79 14 -242 18 -305 8z"/>
    <path d="M2555 3088 c-3 -7 -27 -77 -55 -155 l-49 -143 91 -152 c50 -84 94 -156 97 -160 8 -9 323 -109 328 -104 3 2 13 39 24 80 18 71 19 80 4 129 -51 174 -221 406 -360 492 -33 21 -75 27 -80 13z"/>
    <path d="M1491 2843 l-135 -78 -27 -83 c-31 -91 -49 -201 -49 -290 l0 -57 104 -104 104 -104 210 122 c243 142 217 105 228 332 l7 146 -141 96 c-78 54 -147 97 -154 97 -7 0 -74 -35 -147 -77z"/>
    <path d="M1217 2703 c-66 -143 -79 -202 -83 -368 l-4 -150 38 77 c35 69 40 89 45 175 4 56 18 139 33 193 15 52 27 106 28 119 2 49 -22 29 -57 -46z"/>
    <path d="M2500 2263 l-125 -128 3 -226 3 -227 112 -11 c155 -16 150 -14 175 -67 l23 -47 65 64 c71 70 162 198 191 269 15 39 18 69 15 221 l-3 175 -164 52 c-90 29 -165 52 -167 52 -2 0 -60 -57 -128 -127z"/>
    <path d="M1735 2180 c-110 -66 -204 -121 -209 -122 -7 -3 16 -243 29 -303 7 -32 193 -139 303 -175 52 -16 99 -30 105 -30 7 0 86 30 176 67 l164 67 -7 135 c-3 74 -6 175 -6 226 l0 92 -169 81 c-93 45 -173 82 -178 81 -4 0 -98 -54 -208 -119z"/>
    <path d="M3152 1470 c-530 -306 -981 -562 -1002 -569 -48 -14 -128 -14 -171 0 -19 7 -240 131 -491 275 -251 145 -459 264 -462 264 -4 0 -6 -208 -6 -462 l0 -463 394 -227 c217 -125 423 -237 457 -250 54 -19 84 -22 194 -23 115 0 138 3 200 26 39 14 357 192 720 401 358 207 704 407 770 444 156 90 256 185 309 296 60 124 66 172 66 531 0 174 -3 317 -7 316 -5 0 -442 -252 -971 -559z"/>
    <path d="M1320 1721 c0 -17 76 -106 144 -168 119 -109 284 -179 476 -203 105 -12 220 -13 220 -1 0 5 -21 17 -48 25 -26 9 -71 36 -100 60 -39 31 -73 49 -120 62 -124 33 -244 90 -339 162 -18 13 -74 35 -125 48 -106 27 -108 27 -108 15z"/>
  </g>
</svg>
