<svg xmlns="http://www.w3.org/2000/svg" version="1.1" width="512" height="512">
<path d="M0 0 C2.1875 2.4375 2.1875 2.4375 3 5 C2.76167267 8.03867345 2.3610499 10.27790019 1 13 C0.34 13 -0.32 13 -1 13 C-1.33 14.32 -1.66 15.64 -2 17 C-1.05898438 17.44730469 -0.11796875 17.89460938 0.8515625 18.35546875 C2.10958875 18.96570537 3.36738929 19.57640747 4.625 20.1875 C5.24246094 20.47947266 5.85992187 20.77144531 6.49609375 21.07226562 C10.88873788 23.22234933 14.42752611 25.64187455 18 29 C18 29.66 18 30.32 18 31 C18.99 31.33 19.98 31.66 21 32 C22.6484375 33.63671875 22.6484375 33.63671875 24.375 35.6875 C24.93960937 36.35136719 25.50421875 37.01523438 26.0859375 37.69921875 C28 40 28 40 30.08984375 43.02734375 C33.52816666 47.15085857 38.22965919 48.25769927 43.1875 49.875 C51.4614805 52.78272324 57.51029805 56.02029428 64 62 C67.84906777 64.98248591 71.23818068 67.27345956 76.1875 67.625 C80.78552786 66.87122494 81.98927721 65.42887874 85 62 C87.3125 61.1875 87.3125 61.1875 89 61 C88.125 67.75 88.125 67.75 87 70 C87.91523438 70.13277344 88.83046875 70.26554687 89.7734375 70.40234375 C91.55621094 70.66724609 91.55621094 70.66724609 93.375 70.9375 C94.55835938 71.11152344 95.74171875 71.28554687 96.9609375 71.46484375 C100 72 100 72 102 73 C102 74.32 102 75.64 102 77 C100.02 77.33 98.04 77.66 96 78 C97.65 79.32 99.3 80.64 101 82 C100.67 83.32 100.34 84.64 100 86 C99.34 86 98.68 86 98 86 C98 87.32 98 88.64 98 90 C96.35 89.67 94.7 89.34 93 89 C93 90.32 93 91.64 93 93 C89.32076585 92.57547298 87.54202391 90.72285968 84.8515625 88.3359375 C81.89332275 86.20151135 78.58878655 85.11115885 75.171875 83.89453125 C73 83 73 83 71 81 C71 80.01 71 79.02 71 78 C70.08734375 77.94199219 69.1746875 77.88398438 68.234375 77.82421875 C62.49834766 76.99840376 57.4421993 74.26329556 52.25 71.8125 C51.2290625 71.34263672 50.208125 70.87277344 49.15625 70.38867188 C30.23122132 61.58661221 30.23122132 61.58661221 24 56 C23.67 56.33 23.34 56.66 23 57 C16.53846154 57.35897436 16.53846154 57.35897436 13 55 C12.40161618 58.82965647 13.32982595 60.74183695 15.4375 63.8125 C18.21436998 67.93073938 18.73623757 71.07643459 19 76 C19.99 76.33 20.98 76.66 22 77 C22.90010822 79.38724353 23.58574918 81.59908257 24.1875 84.0625 C24.44466797 85.08923828 24.44466797 85.08923828 24.70703125 86.13671875 C26.27347919 92.67601729 27.05812167 97.2104065 24.625 103.625 C21.47353754 108.33594904 17.33600075 111.19107629 12 113 C6.34602313 113.67442289 0.66722472 113.35502336 -5 113 C-3.35 113.66 -1.7 114.32 0 115 C-0.75 121.75 -0.75 121.75 -3 124 C-5.625 123.625 -5.625 123.625 -8 123 C-8.7734375 124.175625 -8.7734375 124.175625 -9.5625 125.375 C-10.92549868 127.4391095 -12.32957122 129.45118156 -13.7890625 131.44921875 C-14.41554688 132.31160156 -15.04203125 133.17398438 -15.6875 134.0625 C-16.59048828 135.28646484 -16.59048828 135.28646484 -17.51171875 136.53515625 C-19.06858445 139.11358737 -19.73545632 141.00862143 -20 144 C-18.62485459 145.7087646 -18.62485459 145.7087646 -17 147 C-17 147.66 -17 148.32 -17 149 C-16.278125 149.495 -15.55625 149.99 -14.8125 150.5 C-10.86523032 154.00868416 -9.13658658 158.23586652 -7 163 C-6.3709375 162.95359375 -5.741875 162.9071875 -5.09375 162.859375 C1.22285772 162.59301202 5.79029016 163.28566984 11 167 C15.17700774 171.28692899 16.84075025 174.99345319 17.3125 180.9375 C17.10869367 187.72679847 13.30013287 192.11876809 9 197 C10.65 198.65 12.3 200.3 14 202 C14.53367187 200.97261719 15.06734375 199.94523438 15.6171875 198.88671875 C25.30212365 180.68229942 38.13688854 167.76247453 58 161 C58.87269531 160.68160156 59.74539063 160.36320313 60.64453125 160.03515625 C75.34690963 155.47089858 91.71399367 156.87547128 106 162 C121.91860042 166.98133074 137.65636993 167.37586965 153 160 C156.50356366 157.86739603 159.77852612 155.5360539 163 153 C163.99128906 152.23042969 164.98257812 151.46085938 166.00390625 150.66796875 C173.43659351 144.41514818 178.52082612 134.92483734 182 126 C182.99 126 183.98 126 185 126 C184.53288714 136.51003926 177.91855375 144.98053523 170.90234375 152.35546875 C157.31918726 164.73204606 140.83463598 170.50173515 122.53515625 169.8828125 C116.30586184 169.15692564 110.51734856 167.57381151 104.55615234 165.70654297 C84.8896233 159.6070895 67.5215413 160.46991361 48.6875 169.1875 C42.19476942 172.61706875 37.10846235 176.7629073 32 182 C31.04867187 182.88558594 31.04867187 182.88558594 30.078125 183.7890625 C22.46223161 191.43865453 18.41072152 202.49796204 17 213 C13.45544276 217.13531678 8.64831009 218.23385322 3.64453125 219.921875 C1.15573815 220.93650852 -0.31403988 221.87155897 -2.25 223.6875 C-5.61830902 226.51994167 -7.62761824 227 -12 227 C-14.37633793 225.86349056 -16.14441029 224.85558971 -18 223 C-17.875 219.75 -17.875 219.75 -17 216 C-16.21625 215.278125 -15.4325 214.55625 -14.625 213.8125 C-10.67379206 209.57906292 -9.35962923 204.74607597 -9 199 C-10.91666667 195.91666667 -10.91666667 195.91666667 -14 194 C-17.358025 190.45008785 -18.53792617 187.791389 -19.21484375 183.0625 C-20.39317017 179.96719476 -22.61712151 178.26304983 -25 176 C-34.06608023 165.77199381 -38.25506075 157.0674476 -42 144 C-47.39040959 154.18017354 -52.4126553 163.8977097 -55.1953125 175.12109375 C-56.24983297 178.89381988 -57.83686146 181.75529219 -60 185 C-65.19579609 185.31174777 -68.84455075 185.305471 -73 182 C-73.91341095 179.27269279 -74.49978582 176.6262958 -74.96875 173.7890625 C-76.16686295 170.54871157 -77.76306586 169.58219898 -80.44433594 167.54101562 C-83.60969967 164.40545757 -84.81407446 160.02950965 -86.375 155.9375 C-89.79633372 147.50769782 -93.35054596 140.19619776 -99 133 C-99.67417969 132.13375 -100.34835938 131.2675 -101.04296875 130.375 C-112.11142098 117.14930844 -127.01939731 109.37946796 -144 107 C-161.1875577 105.4933382 -177.65949194 107.61361516 -193.640625 114.16796875 C-207.54680354 119.0719688 -223.70267782 115.6126092 -236.9375 110.125 C-243.76252222 106.7973123 -249.88877053 102.63545814 -255 97 C-255.61617187 96.37609375 -256.23234375 95.7521875 -256.8671875 95.109375 C-262.48302934 89.21803903 -268.69505724 81.58045256 -269.15625 73.140625 C-269.1046875 72.43421875 -269.053125 71.7278125 -269 71 C-268.01 71 -267.02 71 -266 71 C-265.52691406 72.03898437 -265.05382812 73.07796875 -264.56640625 74.1484375 C-256.71498259 90.90337156 -245.50305456 103.05768269 -228 110 C-212.05597239 114.65034139 -199.66283459 112.99928652 -184.41601562 107.20849609 C-164.27515913 99.71499647 -141.25317064 100.8244048 -121.8347168 109.68457031 C-102.37861466 119.04464381 -91.26485928 134.11221925 -82 153 C-80.88882813 152.97035156 -79.77765625 152.94070313 -78.6328125 152.91015625 C-74.63478823 153.00903212 -73.93447194 153.55460672 -71 156 C-68.35065178 156.71433121 -68.35065178 156.71433121 -66 157 C-65.73832031 156.21109375 -65.47664062 155.4221875 -65.20703125 154.609375 C-64.29672285 151.88728774 -63.37645331 149.169436 -62.44921875 146.453125 C-55.41376666 126.18296844 -55.41376666 126.18296844 -50.9375 105.25 C-49.99935479 99.01004336 -47.74682952 95.66919266 -43.1875 91.3125 C-39.05192795 88.31218302 -35.24534122 86 -30 86 C-30.22139648 85.47680176 -30.44279297 84.95360352 -30.67089844 84.41455078 C-31.6982616 81.9851202 -32.72424917 79.55511177 -33.75 77.125 C-34.11689941 76.25689697 -34.48379883 75.38879395 -34.86181641 74.49438477 C-37.06539884 69.26638299 -39.21348522 64.02582668 -41.2109375 58.71484375 C-41.97458652 56.79422009 -41.97458652 56.79422009 -44 55 C-48.53470577 54.0227718 -48.53470577 54.0227718 -53.0625 54.5625 C-55 55 -55 55 -58 53.875 C-58.99 53.58625 -59.98 53.2975 -61 53 C-62.35798 53.96626502 -63.68909235 54.97077752 -65 56 C-68.15257327 57.17392581 -71.42005288 57.89517399 -74.6875 58.6875 C-75.97817383 59.02491211 -75.97817383 59.02491211 -77.29492188 59.36914062 C-86.36222811 61.61717661 -94.2482131 61.17700937 -103.375 59.5625 C-108.6333852 58.66772721 -113.79218652 57.8637889 -119.125 57.5625 C-124.14579483 57.17086234 -128.81987758 55.89393091 -133 53 C-134.38671875 51.12890625 -134.38671875 51.12890625 -135 49 C-134.171875 46.859375 -134.171875 46.859375 -132.75 44.75 C-132.29109375 44.04359375 -131.8321875 43.3371875 -131.359375 42.609375 C-130.91078125 42.07828125 -130.4621875 41.5471875 -130 41 C-129.34 41 -128.68 41 -128 41 C-127.67 39.68 -127.34 38.36 -127 37 C-123.31245243 37.49831724 -121.39509338 38.10067643 -119 41 C-118.443125 40.649375 -117.88625 40.29875 -117.3125 39.9375 C-114.46113217 38.78154007 -112.91482778 39.19032562 -110 40 C-110.33 42.31 -110.66 44.62 -111 47 C-109.741875 46.71125 -108.48375 46.4225 -107.1875 46.125 C-102.0202904 45.07391754 -96.86627587 44.55874901 -91.625 44.0625 C-77.80730543 43.06391561 -77.80730543 43.06391561 -65.9375 36.71484375 C-60.64024626 32.44782594 -54.93321512 30.16853425 -48.625 27.75 C-46.48952512 26.91826187 -44.356577 26.07999874 -42.2265625 25.234375 C-41.29408691 24.87569336 -40.36161133 24.51701172 -39.40087891 24.14746094 C-37.02768505 23.01323162 -35.61552473 22.0618357 -34 20 C-33.93132369 17.74049615 -33.93132369 17.74049615 -34.4375 15.3125 C-35.25064484 9.11452931 -34.56536015 4.70927718 -31.375 -0.8125 C-22.24692413 -9.2199383 -9.53011469 -6.4688159 0 0 Z M-27 0 C-29.75254325 3.25959069 -30.93323132 5.09862282 -31.25 9.375 C-31.12625 10.674375 -31.12625 10.674375 -31 12 C-30.38125 12.12375 -29.7625 12.2475 -29.125 12.375 C-27 13 -27 13 -25 15 C-24.0409375 14.319375 -24.0409375 14.319375 -23.0625 13.625 C-16.32945434 10.05236353 -9.49679644 9.76200646 -2 10 C-1.14025199 7.70705512 -1.14025199 7.70705512 -1 5 C-3.73067571 1.62719389 -6.38111794 0.1677646 -10.4375 -1.25 C-11.36433594 -1.58515625 -12.29117187 -1.9203125 -13.24609375 -2.265625 C-18.73138574 -3.72836953 -22.19848658 -3.0647958 -27 0 Z M-23 19 C-23.61875 19.433125 -24.2375 19.86625 -24.875 20.3125 C-26.81640971 23.22461456 -26.40222004 25.60985968 -26 29 C-24.14096054 32.86108195 -23.02793164 34.56258228 -19.0625 36.25 C-15.82982316 36.28680911 -15.82982316 36.28680911 -13.4375 33.8125 C-9.67984073 28.63961841 -6 21.43905118 -6 15 C-12.83277932 14.56231307 -17.58326856 14.26035999 -23 19 Z M-29 17 C-28 19 -28 19 -28 19 Z M-31 23 C-31.66 23.66 -32.32 24.32 -33 25 C-32.90888062 27.53951544 -32.90888062 27.53951544 -32 30 C-30.515 30.99 -30.515 30.99 -29 32 C-29.33 29.03 -29.66 26.06 -30 23 C-30.33 23 -30.66 23 -31 23 Z M-4 22 C-4.38671875 22.81984375 -4.7734375 23.6396875 -5.171875 24.484375 C-5.69265625 25.56203125 -6.2134375 26.6396875 -6.75 27.75 C-7.51570313 29.35101563 -7.51570313 29.35101563 -8.296875 30.984375 C-9.94746534 33.90697991 -11.41299168 35.87875443 -14 38 C-19.68231816 38.77992602 -24.87121669 37.42992917 -30 35 C-33.16000656 32.3666612 -34.7021256 30.89362319 -36 27 C-46.5775087 30.28267511 -57.31219134 33.96701203 -66 41 C-65.07347299 42.17539996 -64.13336613 43.34010577 -63.1875 44.5 C-62.66542969 45.1496875 -62.14335937 45.799375 -61.60546875 46.46875 C-60.00795167 48.34509128 -60.00795167 48.34509128 -57 48 C-55.68 47.67 -54.36 47.34 -53 47 C-54.32 44.03 -55.64 41.06 -57 38 C-47.43159637 40.96891957 -41.68841397 51.96717239 -37.25 60.375 C-33.44959774 67.75132222 -30.10834271 75.30837549 -27 83 C-22.76405097 82.62179027 -19.1629341 82.18519221 -15.25 80.5 C-10.77065864 78.6618639 -6.33718384 78.4660275 -1.5390625 78.2109375 C0.99159354 78.15904786 0.99159354 78.15904786 3 77 C5.20266316 76.61212744 7.41224568 76.26290505 9.625 75.9375 C10.81351562 75.76089844 12.00203125 75.58429688 13.2265625 75.40234375 C14.14179688 75.26957031 15.05703125 75.13679688 16 75 C15.01 72.03 14.02 69.06 13 66 C12.01 66.66 11.02 67.32 10 68 C10 68.66 10 69.32 10 70 C8.66666667 70.66666667 7.33333333 71.33333333 6 72 C5.33742188 72.34160156 4.67484375 72.68320313 3.9921875 73.03515625 C-1.66713936 75.78128718 -6.73334072 76.73834408 -13 77 C-13 76.34 -13 75.68 -13 75 C-16.96 75.66 -20.92 76.32 -25 77 C-25 76.01 -25 75.02 -25 74 C-24.46270264 73.83346924 -23.92540527 73.66693848 -23.37182617 73.49536133 C-17.48371074 71.60961672 -11.9070337 69.31204067 -6.3125 66.6875 C-5.49716797 66.32205078 -4.68183594 65.95660156 -3.84179688 65.58007812 C1.48660593 63.08602378 5.0768744 60.39212607 9 56 C8.731875 55.46375 8.46375 54.9275 8.1875 54.375 C7.795625 53.59125 7.40375 52.8075 7 52 C6.46375 51.071875 5.9275 50.14375 5.375 49.1875 C2.61302369 42.78473675 4.21508109 37.6152156 6.44140625 31.33203125 C7.0597119 28.75071326 6.98810768 27.4464912 6 25 C2.54122057 22.30983822 0.29067198 21.85601772 -4 22 Z M12 30 C11.01 33.3 10.02 36.6 9 40 C10.32 40.33 11.64 40.66 13 41 C13.12117188 41.77085937 13.24234375 42.54171875 13.3671875 43.3359375 C13.53476562 44.33882812 13.70234375 45.34171875 13.875 46.375 C14.03742188 47.37273437 14.19984375 48.37046875 14.3671875 49.3984375 C14.7958802 52.1425115 14.7958802 52.1425115 17 54 C19.41344667 54.66743877 19.41344667 54.66743877 22 54 C25.04598095 50.42157308 25.04598095 50.42157308 26 46 C26.66 46 27.32 46 28 46 C26.55922954 42.63820226 24.75249979 40.40843732 22 38 C21.34 38 20.68 38 20 38 C19.79375 37.4225 19.5875 36.845 19.375 36.25 C17.50249112 33.18589456 15.03041481 31.84460032 12 30 Z M-122 45 C-122 46.65 -122 48.3 -122 50 C-122.99 50.495 -122.99 50.495 -124 51 C-124 51.99 -124 52.98 -124 54 C-121.36 54 -118.72 54 -116 54 C-115.14025199 51.70705512 -115.14025199 51.70705512 -115 49 C-116.64619349 46.60371845 -116.64619349 46.60371845 -119 45 C-119.99 45 -120.98 45 -122 45 Z M-76.26171875 44.91015625 C-83.51852012 46.77394282 -91.08767327 47.10670877 -98.52929688 47.76757812 C-99.70169922 47.88423828 -100.87410156 48.00089844 -102.08203125 48.12109375 C-103.14655518 48.2183374 -104.2110791 48.31558105 -105.30786133 48.41577148 C-108.25227123 49.05474608 -109.24421981 49.59654 -111 52 C-111.33 52.99 -111.66 53.98 -112 55 C-109.16793882 55.50831867 -106.33470266 56.00681505 -103.5 56.5 C-102.31277344 56.71462891 -102.31277344 56.71462891 -101.1015625 56.93359375 C-91.78344265 58.53753241 -84.20397831 57.89843273 -75.0625 55.6875 C-74.10537109 55.47416016 -73.14824219 55.26082031 -72.16210938 55.04101562 C-70.79989258 54.71713867 -70.79989258 54.71713867 -69.41015625 54.38671875 C-68.58652588 54.19295654 -67.76289551 53.99919434 -66.91430664 53.79956055 C-66.28258545 53.53570557 -65.65086426 53.27185059 -65 53 C-64.67 52.01 -64.34 51.02 -64 50 C-65.1196986 48.99406757 -66.2459412 47.9954151 -67.375 47 C-68.00148437 46.443125 -68.62796875 45.88625 -69.2734375 45.3125 C-71.94817597 43.27921465 -72.98497174 43.99580648 -76.26171875 44.91015625 Z M31 49 C30.67 49.99 30.34 50.98 30 52 C29.34 52 28.68 52 28 52 C28.1498713 53.92012846 28.1498713 53.92012846 29 56 C31.03295195 57.56307135 31.03295195 57.56307135 33.63671875 58.8046875 C34.60053467 59.30323242 35.56435059 59.80177734 36.55737305 60.31542969 C37.59031494 60.83008789 38.62325684 61.34474609 39.6875 61.875 C41.25141479 62.67019043 41.25141479 62.67019043 42.84692383 63.48144531 C55.85412511 70.79076119 55.85412511 70.79076119 70 74 C70.495 72.515 70.495 72.515 71 71 C70.12601562 70.39865234 70.12601562 70.39865234 69.234375 69.78515625 C68.41453125 69.21667969 67.5946875 68.64820313 66.75 68.0625 C65.83347656 67.42699219 64.91695313 66.79148437 63.97265625 66.13671875 C61.98619787 64.70887022 60.03468314 63.23115197 58.12109375 61.70703125 C49.85715177 55.13769255 41.45902213 50.84910889 31 49 Z M82 70 C79.44539786 69.92727438 79.44539786 69.92727438 77 71 C75.33368418 73.72669861 74.98840155 75.50126667 75.0625 78.6875 C75.80932414 81.16500845 75.80932414 81.16500845 78.125 82.375 C81.6710534 83.14588117 84.46233363 82.69366007 88 82 C88.12375 80.865625 88.2475 79.73125 88.375 78.5625 C88.58125 77.386875 88.7875 76.21125 89 75 C89.66 74.67 90.32 74.34 91 74 C89.88625 73.71125 88.7725 73.4225 87.625 73.125 C84 72 84 72 82 70 Z M12.875 80 C11.96492188 80.185625 11.05484375 80.37125 10.1171875 80.5625 C9.41851562 80.706875 8.71984375 80.85125 8 81 C10.96213574 83.30465234 14.02152757 85.27590448 17.25 87.1875 C18.8175 88.115625 20.385 89.04375 22 90 C21.34 86.37 20.68 82.74 20 79 C17.52324269 79 15.30140305 79.5022763 12.875 80 Z M-15 84 C-15.33 84.66 -15.66 85.32 -16 86 C-15.278125 86.598125 -14.55625 87.19625 -13.8125 87.8125 C-7.97380813 93.66782632 -5.45667427 101.93208784 -5 110 C3.07993266 111.34665544 9.17846875 112.35954348 16.1640625 107.5 C18.96773794 105.20933752 20.96897892 103.01377322 23 100 C22.28740777 96.76794721 22.28740777 96.76794721 19.27734375 95.39453125 C17.62412109 94.61142578 17.62412109 94.61142578 15.9375 93.8125 C14.83277344 93.28269531 13.72804688 92.75289062 12.58984375 92.20703125 C11.73519531 91.80871094 10.88054687 91.41039062 10 91 C9.67 92.65 9.34 94.3 9 96 C6.13275314 95.42655063 5.1385485 95.1385485 3 93 C1.948125 92.62875 1.948125 92.62875 0.875 92.25 C-1.86986758 91.05657931 -3.67052176 89.77910638 -6 87.9375 C-8.96490287 85.62959265 -11.1410028 84.24118732 -15 84 Z M-39.296875 92.17578125 C-43.33457282 94.824442 -45.48433601 97.45300802 -47 102 C-47.51298324 105.67722639 -47.77361804 109.28733589 -48 113 C-40.575 113.99 -40.575 113.99 -33 115 C-31.78462583 122.29224501 -32.17009564 127.0936813 -36.125 133.375 C-36.74375 134.24125 -37.3625 135.1075 -38 136 C-38 139.34989823 -37.37362605 142.17245274 -36.625 145.4375 C-36.36976563 146.57058594 -36.11453125 147.70367187 -35.8515625 148.87109375 C-35.13410299 151.50726378 -34.33624157 153.6354334 -33 156 C-28.32894208 154.44298069 -24.91294315 151.91552627 -21 149 C-21.66 148.34 -22.32 147.68 -23 147 C-24.08129735 139.43091856 -21.19031151 135.13216318 -17 129 C-16.57460938 128.3503125 -16.14921875 127.700625 -15.7109375 127.03125 C-14.82303812 125.67704376 -13.91441138 124.33644741 -13 123 C-17.739872 119.59701497 -22.62267113 117.24652851 -28 115 C-28 114.34 -28 113.68 -28 113 C-30.31 113 -32.62 113 -35 113 C-33 110 -33 110 -31.11816406 109.31860352 C-27.67391013 108.80053628 -24.22326454 108.89761269 -20.75 108.9375 C-20.00492188 108.94201172 -19.25984375 108.94652344 -18.4921875 108.95117188 C-16.6614236 108.96290754 -14.83070127 108.9808415 -13 109 C-13.17149655 101.67242007 -14.46583397 94.9539554 -19 89 C-25.4362884 85.09620308 -33.13633649 89.02217225 -39.296875 92.17578125 Z M-10 101 C-9 105 -9 105 -9 105 Z M-9 105 C-8 109 -8 109 -8 109 Z M-23 110 C-19 111 -19 111 -19 111 Z M-23 113 C-23 113.33 -23 113.66 -23 114 C-21.02 114 -19.04 114 -17 114 C-17 113.67 -17 113.34 -17 113 C-18.98 113 -20.96 113 -23 113 Z M-16 114 C-10.3790934 118.14384082 -10.3790934 118.14384082 -4 120 C-3.67 119.01 -3.34 118.02 -3 117 C-9.28275689 114.35527522 -9.28275689 114.35527522 -16 114 Z M-48 115 C-48.1858667 115.74983154 -48.3717334 116.49966309 -48.56323242 117.2722168 C-49.42951398 120.74615268 -50.30844394 124.21677556 -51.1875 127.6875 C-51.62545898 129.45577148 -51.62545898 129.45577148 -52.07226562 131.25976562 C-54.50714715 140.81602106 -57.43017764 150.22358076 -62 159 C-61.01 159.33 -60.02 159.66 -59 160 C-57.8125 163.0625 -57.8125 163.0625 -57 166 C-55.52305195 163.06132582 -54.07926857 160.10792147 -52.64453125 157.1484375 C-51.7008046 155.22381916 -50.75678358 153.29934515 -49.8125 151.375 C-49.35552734 150.42753906 -48.89855469 149.48007812 -48.42773438 148.50390625 C-45.56574537 142.70053881 -42.39985301 137.46021049 -38.5222168 132.27587891 C-36.01334466 128.52484345 -34.72189933 125.20396977 -34.875 120.6875 C-34.91625 119.470625 -34.9575 118.25375 -35 117 C-36.03125 116.67 -37.0625 116.34 -38.125 116 C-38.70507812 115.814375 -39.28515625 115.62875 -39.8828125 115.4375 C-42.60919767 114.87411413 -45.22269786 114.97351798 -48 115 Z M-26.0625 156 C-26.63033203 156.3815625 -27.19816406 156.763125 -27.78320312 157.15625 C-29.19018159 158.10211788 -30.59526779 159.05079935 -32 160 C-30.11510933 164.00176788 -28.08097325 167.42746727 -25.3125 170.875 C-24.68988281 171.65617187 -24.06726563 172.43734375 -23.42578125 173.2421875 C-22.95527344 173.82226562 -22.48476563 174.40234375 -22 175 C-21.195625 173.9171875 -21.195625 173.9171875 -20.375 172.8125 C-17.7907112 169.752158 -15.12751986 167.48779989 -12 165 C-13.45668783 162.03216871 -15.01232086 159.13584687 -16.625 156.25 C-17.07101562 155.45078125 -17.51703125 154.6515625 -17.9765625 153.828125 C-18.31429687 153.22484375 -18.65203125 152.6215625 -19 152 C-21.40139546 152 -24.06332805 154.64741738 -26.0625 156 Z M-80 158 C-79.96298724 160.82437198 -79.96298724 160.82437198 -79 164 C-77.48655195 165.19143783 -75.96989314 166.38008984 -74.4140625 167.515625 C-72.12051004 169.9232215 -72.07558003 172.71711205 -71.5546875 175.90625 C-71.0978537 178.30822057 -71.0978537 178.30822057 -68.5625 180.5625 C-66.05362262 182.24462549 -66.05362262 182.24462549 -63 182 C-66.5799616 172.62224694 -70.63068112 163.85852322 -79 158 C-79.33 158 -79.66 158 -80 158 Z M-71 160 C-68.16541556 165.77372322 -65.25633172 171.45217559 -62 177 C-61.34 177 -60.68 177 -60 177 C-58.51132846 171.58664895 -59.40866012 167.8307694 -62 163 C-63.72928883 160.90899372 -63.72928883 160.90899372 -66 160 C-67.66619725 159.96044636 -69.33391395 159.95601093 -71 160 Z M-11.6875 170.375 C-14.51121836 173.58030192 -15.75375636 175.48736052 -16.4375 179.6875 C-15.80263953 184.49430071 -13.87977236 188.12484458 -11 192 C-7.15249364 194.82150466 -3.63581032 195.54816379 1.046875 195.3515625 C5.48551181 194.55260787 8.27164855 191.74803662 11.3125 188.625 C14.01449393 184.42189833 14.19977091 181.39839639 13.5 176.5 C11.56260736 171.97941718 9.2884021 169.41577283 5 167 C-1.66141927 165.06420295 -6.44698303 165.74384547 -11.6875 170.375 Z M-4 201 C-4.4803318 202.58298026 -4.95921612 204.16639978 -5.4375 205.75 C-5.70433594 206.63171875 -5.97117187 207.5134375 -6.24609375 208.421875 C-6.88468494 210.60565835 -7.46775833 212.78835498 -8 215 C0.08978876 214.12297617 5.59133322 212.03199021 12 207 C10.84826645 204.53199953 9.95216435 202.95216435 8 201 C5.10116917 200.75660449 5.10116917 200.75660449 1.875 200.875 C0.23144531 200.90207031 0.23144531 200.90207031 -1.4453125 200.9296875 C-2.28835938 200.95289063 -3.13140625 200.97609375 -4 201 Z M12 210 C11.01 211.485 11.01 211.485 10 213 C11.32 212.34 12.64 211.68 14 211 C13.34 210.67 12.68 210.34 12 210 Z M8 213 C7.67 213.66 7.34 214.32 7 215 C7.99 214.67 8.98 214.34 10 214 C9.34 213.67 8.68 213.34 8 213 Z M-6.0078125 217.70703125 C-6.70648438 218.07183594 -7.40515625 218.43664062 -8.125 218.8125 C-9.18074219 219.34810547 -9.18074219 219.34810547 -10.2578125 219.89453125 C-12.16088468 220.89208944 -12.16088468 220.89208944 -13 223 C-10.85945818 224.05050452 -10.85945818 224.05050452 -8 224 C-5.40994275 222.26080867 -3.20875121 220.19602066 -1 218 C-3.83944669 216.71275221 -3.83944669 216.71275221 -6.0078125 217.70703125 Z " fill="#3388FF" transform="translate(298,146)"/>
</svg>